<svg xmlns="http://www.w3.org/2000/svg">
  <symbol id="this" viewBox="0 0 600 600">
    <path id="floppy" fill="var(--floppy-color, gray)" d="M589.3,0H10.7C4.8,0,0,4.8,0,10.7v132.1h17V168H0v421.3c0,5.9,4.8,10.7,10.7,10.7h219.6c0-3.6,2.9-6.4,6.4-6.4c3.6,0,6.4,2.9,6.4,6.4H356c0-3.6,2.9-6.4,6.4-6.4s6.4,2.9,6.4,6.4l0,0h220.4c5.9,0,10.7-4.8,10.7-10.7V10.7C600,4.8,595.2,0,589.3,0z M44.6,55.1v27.8H30.4V55.1h-8.6l15.8-28.9l15.8,28.9H44.6z M218,201.9c0,8.4-6.8,15.3-15.3,15.3c-8.4,0-15.3-6.8-15.3-15.3c0-8.4,6.8-15.3,15.3-15.3C211.2,186.6,218,193.5,218,201.9L218,201.9z M317.4,558.6c0,9.6-7.8,17.4-17.4,17.4s-17.4-7.8-17.4-17.4v-94.2c0-9.6,7.8-17.4,17.4-17.4s17.4,7.8,17.4,17.4V558.6z M575,67h-25V42h25V67z"/>
    <path id="frame" fill="var(--frame-color, darkgray)" d="M75,0v300.4h450V0H75z M202.7,216.1c-7.8,0-14.2-6.3-14.2-14.2c0-7.8,6.3-14.2,14.2-14.2c7.8,0,14.2,6.3,14.2,14.2C216.9,209.7,210.5,216.1,202.7,216.1z"/>
    <rect id="image" fill="blue" x="150" y="20" width="300" height="150"/>
  </symbol>
</svg>
