<svg xmlns="http://www.w3.org/2000/svg" viewBox="0 0 303 303">
  <style>
    .cls-1,
    .cls-2,
    .cls-3,
    .cls-4,
    .cls-5,
    .cls-6 {
      stroke: lightgray; stroke-width: 3px;
    }
    .cls-2 {
      fill: gray;
    }
    .cls-3 {
      fill: #fff;
    }
    .cls-4 {
      fill: #cc1b70;
    }
    .cls-5 {
      fill: #29abe2;
    }
    .cls-6 {
      fill: #fcee21;
    }
  </style>
  <path class="cls-1" d="M301.5,151.5h-150l75-129.9.01-.02A149.92812,149.92812,0,0,1,301.5,151.5Z"/>
  <path class="cls-2" d="M226.51,281.42l-.01-.02-75-129.9h150A149.928,149.928,0,0,1,226.51,281.42Z"/>
  <path class="cls-3" d="M151.5,301.5a149.25131,149.25131,0,0,1-75.01-20.08l.01-.02,75-129.9,75,129.9.01.02A149.25064,149.25064,0,0,1,151.5,301.5Z"/>
  <path class="cls-4" d="M76.49,281.42A149.9282,149.9282,0,0,1,1.5,151.5h150l-75,129.9Z"/>
  <path class="cls-5" d="M151.5,151.5H1.5A149.92837,149.92837,0,0,1,76.49,21.58l.01.02Z"/>
  <path class="cls-6" d="M151.5,151.5,76.5,21.6l-.01-.02a150.14239,150.14239,0,0,1,150.02,0l-.01.02Z"/>
</svg>