<svg xmlns="http://www.w3.org/2000/svg" viewBox="0 0 899.20121 836.57173">
  <style>
    .cls-1 {
      fill: #29abe2;
    }
    .cls-2 {
      fill: #fcee21;
    }
    .cls-3 {
      fill: #ed1e79;
    }
  </style>
  <rect x="10.06752" y="501.47967" width="48.61028" height="48.61028" transform="translate(-361.71854 178.30401) rotate(-45)"/>
  <rect class="cls-1" x="188.37565" y="323.17148" width="48.61028" height="48.61028" transform="translate(-183.41033 252.16164) rotate(-45)"/>
  <rect class="cls-2" x="222.7483" y="288.79882" width="48.61028" height="48.61028" transform="translate(-149.03766 266.39925) rotate(-45)"/>
  <rect class="cls-2" x="388.73418" y="523.52995" width="48.61028" height="48.61028" transform="translate(-266.40151 452.5202) rotate(-45)"/>
  <rect x="807.10429" y="105.15971" width="48.61028" height="48.61028" transform="translate(151.96879 625.81473) rotate(-45)"/>
  <rect x="134.37028" y="777.89394" width="48.61028" height="48.61028" transform="translate(-520.76553 347.15925) rotate(-45)"/>
  <rect x="439.33963" y="715.92257" width="48.61028" height="48.61028" transform="translate(-387.62166 544.65418) rotate(-45)"/>
  <rect class="cls-1" x="611.20289" y="544.05926" width="48.61028" height="48.61028" transform="translate(-215.75832 615.84225) rotate(-45)"/>
  <rect class="cls-2" x="645.57554" y="509.6866" width="48.61028" height="48.61028" transform="translate(-181.38566 630.07987) rotate(-45)"/>
  <rect class="cls-3" x="840.52341" y="314.73866" width="48.61028" height="48.61028" transform="translate(13.56231 710.8299) rotate(-45)"/>
  <rect class="cls-3" x="244.79871" y="667.46548" width="48.61028" height="48.61028" transform="translate(-410.33705 392.90019) rotate(-45)"/>
  <rect class="cls-1" x="279.17136" y="633.09281" width="48.61028" height="48.61028" transform="translate(-375.96438 407.1378) rotate(-45)"/>
  <rect class="cls-3" x="501.47951" y="10.06752" width="48.61028" height="48.61028" transform="translate(129.69368 381.85347) rotate(-45)"/>
</svg>