<svg xmlns="http://www.w3.org/2000/svg" viewBox="0 0 453 453">
  <style>
    .st0 { fill: #453D4C; stroke: #D3D3D3; stroke-width: 3; }
    .st1{ fill: #331033; stroke: #D3D3D3; stroke-width: 3; }
    .st2{ fill: #FF7BAC; stroke: #D3D3D3; stroke-width: 3; }
    .st3{ fill: #1C2C39; stroke: #D3D3D3; stroke-width: 3; }
    .st4{ fill: #000000; stroke: #D3D3D3; stroke-width: 3; }
    .st5{ fill: #808080; stroke: #D3D3D3; stroke-width: 3; }
    .st6{ fill: #FFFFFF; stroke: #D3D3D3; stroke-width: 3; }
    .st7{ fill: #CC1B70; stroke: #D3D3D3; stroke-width: 3; }
    .st8{ fill: #29ABE2; stroke: #D3D3D3; stroke-width: 3; }
    .st9{ fill: #FCEE21; stroke: #D3D3D3; stroke-width: 3; }
  </style>
  <g>
    <path class="st0" d="M385.6,67.4L226.5,226.5L67.4,67.4C155.3-20.5,297.7-20.5,385.6,67.4z"/>
    <path class="st1" d="M451.5,226.5c0.1,59.7-23.6,116.9-65.9,159.1L226.5,226.5L385.6,67.4C427.9,109.6,451.6,166.8,451.5,226.5z"/>
    <path class="st2" d="M226.5,226.5L67.4,385.6c-87.9-87.9-87.9-230.3,0-318.2L226.5,226.5z"/>
    <path class="st3" d="M385.6,385.6c-87.9,87.9-230.3,87.9-318.2,0l159.1-159.1L385.6,385.6z"/>
  </g>
  <g>
    <path class="st4" d="M376.5,226.5h-150l75-129.9l0,0C347.9,123.4,376.5,172.9,376.5,226.5z"/>
    <path class="st5" d="M301.5,356.4L301.5,356.4l-75-129.9h150C376.5,280.1,347.9,329.6,301.5,356.4z"/>
    <path class="st6" d="M226.5,376.5c-26.3,0-52.2-6.9-75-20.1l0,0l75-129.9l75,129.9l0,0C278.7,369.6,252.8,376.5,226.5,376.5z"/>
    <path class="st7" d="M151.5,356.4c-46.4-26.8-75-76.3-75-129.9h150L151.5,356.4L151.5,356.4z"/>
    <path class="st8" d="M226.5,226.5h-150c0-53.6,28.6-103.1,75-129.9l0,0L226.5,226.5z"/>
    <path class="st9" d="M226.5,226.5l-75-129.9l0,0c46.4-26.8,103.6-26.8,150,0l0,0L226.5,226.5z"/>
  </g>
</svg>
