<svg xmlns="http://www.w3.org/2000/svg" viewBox="0 0 600 600">
  <path d="M589.3,0H10.7C4.8,0,0,4.8,0,10.7v132.1h17V168H0v421.3c0,5.9,4.8,10.7,10.7,10.7h219.6c0-3.6,2.9-6.4,6.4-6.4c3.6,0,6.4,2.9,6.4,6.4H356c0-3.6,2.9-6.4,6.4-6.4s6.4,2.9,6.4,6.4l0,0h220.4c5.9,0,10.7-4.8,10.7-10.7V10.7C600,4.8,595.2,0,589.3,0z M44.6,55.1v27.8H30.4V55.1h-8.6l15.8-28.9l15.8,28.9H44.6z M133.4,210.4c0,5.4-4.4,9.9-9.9,9.9c-5.4,0-9.9-4.4-9.9-9.9c0-5.4,4.4-9.9,9.9-9.9C129,200.5,133.4,205,133.4,210.4L133.4,210.4z M317.4,558.6c0,9.6-7.8,17.4-17.4,17.4s-17.4-7.8-17.4-17.4v-94.2c0-9.6,7.8-17.4,17.4-17.4s17.4,7.8,17.4,17.4V558.6z M575,67h-25V42h25V67z"/>
</svg>
